<svg xmlns="http://www.w3.org/2000/svg" version="1.1" xmlns:xlink="http://www.w3.org/1999/xlink" xmlns:svgjs="http://svgjs.dev/svgjs" width="1500" height="1500" viewBox="0 0 1500 1500"><rect width="1500" height="1500" fill="none"></rect><g transform="matrix(0.6666666666666666,0,0,0.6666666666666666,250,348.33333333333337)"><svg viewBox="0 0 448 360" data-background-color="#ffffff" preserveAspectRatio="xMidYMid meet" height="1205" width="1500" xmlns="http://www.w3.org/2000/svg" xmlns:xlink="http://www.w3.org/1999/xlink"><g id="tight-bounds" transform="matrix(1,0,0,1,0,0)"><svg viewBox="0 0 448 360" height="360" width="448"><g><svg></svg></g><g><svg viewBox="0 0 448 360" height="360" width="448"><g><path d="M193.855 44.683c1.378 0 2.494 1.116 2.495 2.494 0 1.378-1.116 2.494-2.495 2.495h-23.846l-17.167 17.167c-0.973 0.973-2.551 0.973-3.53 0-0.973-0.973-0.973-2.551 0-3.529l13.644-13.645h-40.378c-11.518 0-19.151 2.688-23.815 8.113-4.739 5.519-6.66 14.056-6.66 25.63 0 0.069 0 0.137-0.006 0.206l0.212 36.692 14.692-14.692c0.973-0.973 2.551-0.973 3.53 0 0.973 0.973 0.973 2.551 0 3.53l-18.178 18.178c0.206 35.832 0.193 71.358-0.013 107.19 25.486 25.2 50.617 50.312 75.811 75.791h25.38c1.378 0 2.494 1.116 2.495 2.495 0 1.378-1.116 2.494-2.495 2.494h-20.448l25.942 26.241 0.006-0.006c8.188 8.188 15.577 12.859 22.824 13.413 7.146 0.543 14.442-2.956 22.586-11.093l28.555-28.555h-20.722c-1.378 0-2.494-1.116-2.495-2.494 0-1.378 1.116-2.494 2.495-2.495h25.711l16.625-16.625c0.973-0.973 2.551-0.973 3.529 0 0.973 0.973 0.973 2.551 0 3.53l-13.101 13.102h40.377c11.518 0 19.151-2.688 23.815-8.113 4.739-5.519 6.66-14.056 6.66-25.63h0.013l-0.212-36.898-16.014 16.014c-0.973 0.973-2.551 0.973-3.53 0-0.973-0.973-0.973-2.551 0-3.53l19.5-19.5c-0.206-35.832-0.193-71.358 0.013-107.19-25.486-25.2-50.617-50.312-75.811-75.791h-26.147c-1.378 0-2.494-1.116-2.495-2.495 0-1.378 1.116-2.494 2.495-2.494h21.215l-25.824-26.123c-0.044-0.037-0.081-0.075-0.124-0.112-8.188-8.188-15.577-12.859-22.824-13.413-7.146-0.543-14.442 2.956-22.586 11.093l-28.555 28.555h18.858zM122.578 44.683h45.367l32.078-32.078c9.248-9.248 17.81-13.195 26.484-12.534 8.568 0.649 16.956 5.824 25.985 14.854 0.05 0.05 0.094 0.094 0.137 0.143l29.278 29.615h43.508c13.071 0 21.919 3.268 27.594 9.871 5.6 6.517 7.864 16.101 7.864 28.867 0 0.081-0.006 0.156-0.012 0.23l-0.225 39.742 28.43 28.112 0.006-0.006c9.03 9.03 14.206 17.411 14.854 25.985 0.661 8.674-3.293 17.236-12.534 26.484l-30.768 30.768 0.237 41.843h0.012c0 12.765-2.27 22.35-7.864 28.867-5.675 6.604-14.524 9.872-27.594 9.871h-45.366l-32.078 32.078c-9.248 9.248-17.81 13.195-26.484 12.534-8.568-0.649-16.956-5.824-25.985-14.854l0.006-0.006-29.421-29.758h-43.509c-13.071 0-21.919-3.268-27.594-9.872-5.6-6.517-7.864-16.101-7.863-28.866h0.012l0.231-39.972-28.293-27.969c-0.05-0.044-0.1-0.087-0.143-0.137-9.03-9.03-14.206-17.411-14.854-25.985-0.661-8.674 3.293-17.236 12.534-26.484l30.768-30.768-0.237-41.607c-0.006-0.075-0.012-0.156-0.012-0.23 0-12.765 2.27-22.35 7.864-28.867 5.675-6.604 14.524-9.872 27.594-9.871zM87.682 179.997l-0.274-47.724-27.276 27.276c-8.138 8.138-11.636 15.44-11.094 22.587 0.549 7.246 5.226 14.642 13.413 22.823 0.037 0.037 0.081 0.081 0.113 0.125l24.837 24.551 0.281-49.644zM92.303 241.483l-0.2 35.09h0.013c0 11.58 1.921 20.117 6.66 25.63 4.664 5.432 12.297 8.113 23.815 8.113h38.576l-33.55-33.936-35.308-34.903zM325.415 49.672h-38.575l33.549 33.936 35.308 34.902 0.2-34.884c-0.006-0.069-0.006-0.137-0.007-0.205 0-11.58-1.921-20.117-6.66-25.63-4.664-5.432-12.297-8.113-23.815-8.113zM360.599 130.352l-0.281 49.645 0.274 47.724 27.276-27.276c8.138-8.138 11.636-15.44 11.094-22.587-0.549-7.252-5.226-14.642-13.413-22.824l0.006-0.006-24.956-24.669z" fill="#000000" fill-rule="nonzero" stroke="none" stroke-width="1" stroke-linecap="butt" stroke-linejoin="miter" stroke-miterlimit="10" stroke-dasharray="" stroke-dashoffset="0" font-family="none" font-weight="none" font-size="none" text-anchor="none" style="mix-blend-mode: normal" data-fill-palette-color="tertiary"></path></g><g transform="matrix(1,0,0,1,112,164.27977967820547)"><svg viewBox="0 0 224 31.440440643589074" height="31.440440643589074" width="224"><g><svg viewBox="0 0 224 31.440440643589074" height="31.440440643589074" width="224"><g><svg viewBox="0 0 224 31.440440643589074" height="31.440440643589074" width="224"><g id="textblocktransform"><svg viewBox="0 0 224 31.440440643589074" height="31.440440643589074" width="224" id="textblock"><g><svg viewBox="0 0 224 15.33385311086855" height="15.33385311086855" width="224"><g transform="matrix(1,0,0,1,0,0)"><svg width="224" viewBox="0.4 -33.05 641.23 43.9" height="15.33385311086855" data-palette-color="#000000"><path d="M10.2-27.15Q14.9-27.15 18.15-24.05L18.15-24.05 15.8-20.7Q14.4-21.7 13.15-22.2 11.9-22.7 10.6-22.7L10.6-22.7Q9.15-22.7 8.33-21.93 7.5-21.15 7.5-19.8L7.5-19.8Q7.5-18.45 8.43-17.63 9.35-16.8 12.15-15.7L12.15-15.7Q15.6-14.35 17.25-12.5 18.9-10.65 18.9-7.55L18.9-7.55Q18.9-3.7 16.2-1.48 13.5 0.75 9.35 0.75L9.35 0.75Q6.65 0.75 4.38-0.23 2.1-1.2 0.4-2.95L0.4-2.95 3.4-6.25Q6.2-3.8 9.1-3.8L9.1-3.8Q10.75-3.8 11.7-4.67 12.65-5.55 12.65-7.1L12.65-7.1Q12.65-8.25 12.25-8.97 11.85-9.7 10.85-10.33 9.85-10.95 7.85-11.7L7.85-11.7Q4.4-13.05 2.93-14.85 1.45-16.65 1.45-19.45L1.45-19.45Q1.45-22.8 3.83-24.98 6.2-27.15 10.2-27.15L10.2-27.15ZM46.4-27.15Q49.05-27.15 50.65-25.1 52.25-23.05 52.25-19.6L52.25-19.6 52.25 0 46.2 0 46.2-18.95Q46.2-20.85 45.7-21.68 45.2-22.5 44.25-22.5L44.25-22.5Q42.3-22.5 40.5-18.8L40.5-18.8 40.5 0 34.5 0 34.5-18.95Q34.5-22.5 32.6-22.5L32.6-22.5Q30.55-22.5 28.8-18.8L28.8-18.8 28.8 0 22.75 0 22.75-26.45 28.1-26.45 28.5-23.05Q31.1-27.15 34.75-27.15L34.75-27.15Q36.6-27.15 37.95-26 39.3-24.85 40-22.75L40-22.75Q42.65-27.15 46.4-27.15L46.4-27.15ZM74.65-6.4Q74.65-5.1 75-4.48 75.34-3.85 76.15-3.45L76.15-3.45 74.9 0.65Q72.84 0.4 71.62-0.45 70.4-1.3 69.8-3.05L69.8-3.05Q67.5 0.75 63.35 0.75L63.35 0.75Q60.05 0.75 58.1-1.48 56.15-3.7 56.15-7.4L56.15-7.4Q56.15-11.7 58.82-13.95 61.5-16.2 66.59-16.2L66.59-16.2 68.65-16.2 68.65-18.05Q68.65-20.55 67.77-21.58 66.9-22.6 64.95-22.6L64.95-22.6Q62.6-22.6 59.1-21.3L59.1-21.3 57.7-25.3Q59.7-26.2 61.85-26.68 64-27.15 65.95-27.15L65.95-27.15Q74.65-27.15 74.65-18.35L74.65-18.35 74.65-6.4ZM65-3.7Q67.4-3.7 68.65-7L68.65-7 68.65-12.55 67.2-12.55Q64.65-12.55 63.47-11.4 62.3-10.25 62.3-7.85L62.3-7.85Q62.3-5.8 63-4.75 63.7-3.7 65-3.7L65-3.7ZM92.09-27.1Q93.24-27.1 94.14-26.75L94.14-26.75 93.14-20.85Q92.14-21.1 91.29-21.1L91.29-21.1Q89.39-21.1 88.29-19.45 87.19-17.8 86.59-14.55L86.59-14.55 86.59 0 80.44 0 80.44-26.45 85.79-26.45 86.24-21.85Q88.09-27.1 92.09-27.1L92.09-27.1ZM108.14-5L110.29-1.2Q107.84 0.75 104.54 0.75L104.54 0.75Q101.09 0.75 99.29-1.23 97.49-3.2 97.49-6.6L97.49-6.6 97.49-22 94.39-22 94.39-26.45 97.49-26.45 97.49-32.3 103.64-33.05 103.64-26.45 108.64-26.45 108.04-22 103.64-22 103.64-6.6Q103.64-4.2 105.69-4.2L105.69-4.2Q106.34-4.2 106.84-4.38 107.34-4.55 108.14-5L108.14-5ZM132.19-27.15Q134.34-27.15 136.09-26.43 137.84-25.7 139.44-24.15L139.44-24.15 136.78-20.65Q135.69-21.55 134.71-21.98 133.74-22.4 132.59-22.4L132.59-22.4Q130.34-22.4 129.19-20.28 128.03-18.15 128.03-13.1L128.03-13.1Q128.03-8.2 129.21-6.2 130.39-4.2 132.59-4.2L132.59-4.2Q133.69-4.2 134.59-4.6 135.49-5 136.69-5.85L136.69-5.85 139.44-2.3Q136.24 0.75 132.28 0.75L132.28 0.75Q127.19 0.75 124.36-2.73 121.54-6.2 121.54-13L121.54-13Q121.54-17.4 122.84-20.6 124.14-23.8 126.56-25.48 128.99-27.15 132.19-27.15L132.19-27.15ZM159.38-6.4Q159.38-5.1 159.73-4.48 160.08-3.85 160.88-3.45L160.88-3.45 159.63 0.65Q157.58 0.4 156.36-0.45 155.13-1.3 154.53-3.05L154.53-3.05Q152.23 0.75 148.08 0.75L148.08 0.75Q144.78 0.75 142.83-1.48 140.88-3.7 140.88-7.4L140.88-7.4Q140.88-11.7 143.56-13.95 146.23-16.2 151.33-16.2L151.33-16.2 153.38-16.2 153.38-18.05Q153.38-20.55 152.51-21.58 151.63-22.6 149.68-22.6L149.68-22.6Q147.33-22.6 143.83-21.3L143.83-21.3 142.43-25.3Q144.43-26.2 146.58-26.68 148.73-27.15 150.68-27.15L150.68-27.15Q159.38-27.15 159.38-18.35L159.38-18.35 159.38-6.4ZM149.73-3.7Q152.13-3.7 153.38-7L153.38-7 153.38-12.55 151.93-12.55Q149.38-12.55 148.21-11.4 147.03-10.25 147.03-7.85L147.03-7.85Q147.03-5.8 147.73-4.75 148.43-3.7 149.73-3.7L149.73-3.7ZM188.83-27.15Q191.48-27.15 193.08-25.1 194.68-23.05 194.68-19.6L194.68-19.6 194.68 0 188.63 0 188.63-18.95Q188.63-20.85 188.13-21.68 187.63-22.5 186.68-22.5L186.68-22.5Q184.73-22.5 182.93-18.8L182.93-18.8 182.93 0 176.93 0 176.93-18.95Q176.93-22.5 175.03-22.5L175.03-22.5Q172.98-22.5 171.23-18.8L171.23-18.8 171.23 0 165.18 0 165.18-26.45 170.53-26.45 170.93-23.05Q173.53-27.15 177.18-27.15L177.18-27.15Q179.03-27.15 180.38-26 181.73-24.85 182.43-22.75L182.43-22.75Q185.08-27.15 188.83-27.15L188.83-27.15ZM212.38-27.15Q216.28-27.15 218.28-23.58 220.28-20 220.28-13.3L220.28-13.3Q220.28-6.8 218-3.03 215.73 0.75 211.68 0.75L211.68 0.75Q208.48 0.75 206.33-2.1L206.33-2.1 206.33 10.15 200.18 10.85 200.18-26.45 205.63-26.45 205.88-23.25Q207.18-25.25 208.78-26.2 210.38-27.15 212.38-27.15L212.38-27.15ZM210.03-3.95Q211.93-3.95 212.93-6.13 213.93-8.3 213.93-13.25L213.93-13.25Q213.93-18.45 213.08-20.5 212.23-22.55 210.43-22.55L210.43-22.55Q208.13-22.55 206.33-19.25L206.33-19.25 206.33-6.45Q207.93-3.95 210.03-3.95L210.03-3.95ZM243.03-26.45L243.03 0 237.68 0 237.38-3.35Q236.13-1.3 234.58-0.28 233.03 0.75 230.98 0.75L230.98 0.75Q228.08 0.75 226.4-1.3 224.73-3.35 224.73-6.65L224.73-6.65 224.73-26.45 230.88-26.45 230.88-7Q230.88-3.9 232.98-3.9L232.98-3.9Q234.18-3.9 235.13-4.83 236.08-5.75 236.88-7.45L236.88-7.45 236.88-26.45 243.03-26.45ZM256.07-27.15Q260.77-27.15 264.02-24.05L264.02-24.05 261.67-20.7Q260.27-21.7 259.02-22.2 257.77-22.7 256.47-22.7L256.47-22.7Q255.02-22.7 254.2-21.93 253.37-21.15 253.37-19.8L253.37-19.8Q253.37-18.45 254.3-17.63 255.22-16.8 258.02-15.7L258.02-15.7Q261.47-14.35 263.12-12.5 264.77-10.65 264.77-7.55L264.77-7.55Q264.77-3.7 262.07-1.48 259.37 0.75 255.22 0.75L255.22 0.75Q252.52 0.75 250.25-0.23 247.97-1.2 246.27-2.95L246.27-2.95 249.27-6.25Q252.07-3.8 254.97-3.8L254.97-3.8Q256.62-3.8 257.57-4.67 258.52-5.55 258.52-7.1L258.52-7.1Q258.52-8.25 258.12-8.97 257.72-9.7 256.72-10.33 255.72-10.95 253.72-11.7L253.72-11.7Q250.27-13.05 248.8-14.85 247.32-16.65 247.32-19.45L247.32-19.45Q247.32-22.8 249.7-24.98 252.07-27.15 256.07-27.15L256.07-27.15ZM295.37-6.4Q295.37-5.1 295.72-4.48 296.07-3.85 296.87-3.45L296.87-3.45 295.62 0.65Q293.57 0.4 292.34-0.45 291.12-1.3 290.52-3.05L290.52-3.05Q288.22 0.75 284.07 0.75L284.07 0.75Q280.77 0.75 278.82-1.48 276.87-3.7 276.87-7.4L276.87-7.4Q276.87-11.7 279.54-13.95 282.22-16.2 287.32-16.2L287.32-16.2 289.37-16.2 289.37-18.05Q289.37-20.55 288.49-21.58 287.62-22.6 285.67-22.6L285.67-22.6Q283.32-22.6 279.82-21.3L279.82-21.3 278.42-25.3Q280.42-26.2 282.57-26.68 284.72-27.15 286.67-27.15L286.67-27.15Q295.37-27.15 295.37-18.35L295.37-18.35 295.37-6.4ZM285.72-3.7Q288.12-3.7 289.37-7L289.37-7 289.37-12.55 287.92-12.55Q285.37-12.55 284.19-11.4 283.02-10.25 283.02-7.85L283.02-7.85Q283.02-5.8 283.72-4.75 284.42-3.7 285.72-3.7L285.72-3.7ZM308.52-27.15Q313.22-27.15 316.47-24.05L316.47-24.05 314.12-20.7Q312.72-21.7 311.47-22.2 310.22-22.7 308.92-22.7L308.92-22.7Q307.47-22.7 306.64-21.93 305.82-21.15 305.82-19.8L305.82-19.8Q305.82-18.45 306.74-17.63 307.67-16.8 310.47-15.7L310.47-15.7Q313.92-14.35 315.57-12.5 317.22-10.65 317.22-7.55L317.22-7.55Q317.22-3.7 314.52-1.48 311.82 0.75 307.67 0.75L307.67 0.75Q304.97 0.75 302.69-0.23 300.42-1.2 298.72-2.95L298.72-2.95 301.72-6.25Q304.52-3.8 307.42-3.8L307.42-3.8Q309.07-3.8 310.02-4.67 310.97-5.55 310.97-7.1L310.97-7.1Q310.97-8.25 310.57-8.97 310.17-9.7 309.17-10.33 308.17-10.95 306.17-11.7L306.17-11.7Q302.72-13.05 301.24-14.85 299.77-16.65 299.77-19.45L299.77-19.45Q299.77-22.8 302.14-24.98 304.52-27.15 308.52-27.15L308.52-27.15ZM328.41-27.15Q333.11-27.15 336.36-24.05L336.36-24.05 334.01-20.7Q332.61-21.7 331.36-22.2 330.11-22.7 328.81-22.7L328.81-22.7Q327.36-22.7 326.54-21.93 325.71-21.15 325.71-19.8L325.71-19.8Q325.71-18.45 326.64-17.63 327.56-16.8 330.36-15.7L330.36-15.7Q333.81-14.35 335.46-12.5 337.11-10.65 337.11-7.55L337.11-7.55Q337.11-3.7 334.41-1.48 331.71 0.75 327.56 0.75L327.56 0.75Q324.86 0.75 322.59-0.23 320.31-1.2 318.61-2.95L318.61-2.95 321.61-6.25Q324.41-3.8 327.31-3.8L327.31-3.8Q328.96-3.8 329.91-4.67 330.86-5.55 330.86-7.1L330.86-7.1Q330.86-8.25 330.46-8.97 330.06-9.7 329.06-10.33 328.06-10.95 326.06-11.7L326.06-11.7Q322.61-13.05 321.14-14.85 319.66-16.65 319.66-19.45L319.66-19.45Q319.66-22.8 322.04-24.98 324.41-27.15 328.41-27.15L328.41-27.15ZM359.81-13.85Q359.81-13.4 359.66-11.3L359.66-11.3 346.01-11.3Q346.21-7.2 347.44-5.58 348.66-3.95 350.91-3.95L350.91-3.95Q352.46-3.95 353.71-4.48 354.96-5 356.41-6.15L356.41-6.15 358.96-2.65Q355.46 0.75 350.56 0.75L350.56 0.75Q345.36 0.75 342.59-2.85 339.81-6.45 339.81-13L339.81-13Q339.81-19.55 342.46-23.35 345.11-27.15 349.96-27.15L349.96-27.15Q354.61-27.15 357.21-23.78 359.81-20.4 359.81-13.85L359.81-13.85ZM353.81-15.3L353.81-15.65Q353.81-19.4 352.91-21.13 352.01-22.85 350.01-22.85L350.01-22.85Q348.16-22.85 347.19-21.18 346.21-19.5 346.01-15.3L346.01-15.3 353.81-15.3ZM371.46-27.15Q376.16-27.15 379.41-24.05L379.41-24.05 377.06-20.7Q375.66-21.7 374.41-22.2 373.16-22.7 371.86-22.7L371.86-22.7Q370.41-22.7 369.58-21.93 368.76-21.15 368.76-19.8L368.76-19.8Q368.76-18.45 369.68-17.63 370.61-16.8 373.41-15.7L373.41-15.7Q376.86-14.35 378.51-12.5 380.16-10.65 380.16-7.55L380.16-7.55Q380.16-3.7 377.46-1.48 374.76 0.75 370.61 0.75L370.61 0.75Q367.91 0.75 365.63-0.23 363.36-1.2 361.66-2.95L361.66-2.95 364.66-6.25Q367.46-3.8 370.36-3.8L370.36-3.8Q372.01-3.8 372.96-4.67 373.91-5.55 373.91-7.1L373.91-7.1Q373.91-8.25 373.51-8.97 373.11-9.7 372.11-10.33 371.11-10.95 369.11-11.7L369.11-11.7Q365.66-13.05 364.18-14.85 362.71-16.65 362.71-19.45L362.71-19.45Q362.71-22.8 365.08-24.98 367.46-27.15 371.46-27.15L371.46-27.15ZM391.35-27.15Q396.05-27.15 399.3-24.05L399.3-24.05 396.95-20.7Q395.55-21.7 394.3-22.2 393.05-22.7 391.75-22.7L391.75-22.7Q390.3-22.7 389.48-21.93 388.65-21.15 388.65-19.8L388.65-19.8Q388.65-18.45 389.58-17.63 390.5-16.8 393.3-15.7L393.3-15.7Q396.75-14.35 398.4-12.5 400.05-10.65 400.05-7.55L400.05-7.55Q400.05-3.7 397.35-1.48 394.65 0.75 390.5 0.75L390.5 0.75Q387.8 0.75 385.53-0.23 383.25-1.2 381.55-2.95L381.55-2.95 384.55-6.25Q387.35-3.8 390.25-3.8L390.25-3.8Q391.9-3.8 392.85-4.67 393.8-5.55 393.8-7.1L393.8-7.1Q393.8-8.25 393.4-8.97 393-9.7 392-10.33 391-10.95 389-11.7L389-11.7Q385.55-13.05 384.08-14.85 382.6-16.65 382.6-19.45L382.6-19.45Q382.6-22.8 384.98-24.98 387.35-27.15 391.35-27.15L391.35-27.15ZM427.55-27.15Q430.2-27.15 431.8-25.1 433.4-23.05 433.4-19.6L433.4-19.6 433.4 0 427.35 0 427.35-18.95Q427.35-20.85 426.85-21.68 426.35-22.5 425.4-22.5L425.4-22.5Q423.45-22.5 421.65-18.8L421.65-18.8 421.65 0 415.65 0 415.65-18.95Q415.65-22.5 413.75-22.5L413.75-22.5Q411.7-22.5 409.95-18.8L409.95-18.8 409.95 0 403.9 0 403.9-26.45 409.25-26.45 409.65-23.05Q412.25-27.15 415.9-27.15L415.9-27.15Q417.75-27.15 419.1-26 420.45-24.85 421.15-22.75L421.15-22.75Q423.8-27.15 427.55-27.15L427.55-27.15ZM457.75-13.85Q457.75-13.4 457.6-11.3L457.6-11.3 443.95-11.3Q444.15-7.2 445.37-5.58 446.6-3.95 448.85-3.95L448.85-3.95Q450.4-3.95 451.65-4.48 452.9-5 454.35-6.15L454.35-6.15 456.9-2.65Q453.4 0.75 448.5 0.75L448.5 0.75Q443.3 0.75 440.52-2.85 437.75-6.45 437.75-13L437.75-13Q437.75-19.55 440.4-23.35 443.05-27.15 447.9-27.15L447.9-27.15Q452.55-27.15 455.15-23.78 457.75-20.4 457.75-13.85L457.75-13.85ZM451.75-15.3L451.75-15.65Q451.75-19.4 450.85-21.13 449.95-22.85 447.95-22.85L447.95-22.85Q446.1-22.85 445.12-21.18 444.15-19.5 443.95-15.3L443.95-15.3 451.75-15.3ZM474.4-27.15Q477.25-27.15 478.9-25.1 480.55-23.05 480.55-19.6L480.55-19.6 480.55 0 474.4 0 474.4-18.9Q474.4-20.8 473.87-21.63 473.35-22.45 472.35-22.45L472.35-22.45Q470.25-22.45 468.2-18.5L468.2-18.5 468.2 0 462.05 0 462.05-26.45 467.4-26.45 467.85-23Q469.2-25.1 470.72-26.13 472.25-27.15 474.4-27.15L474.4-27.15ZM497.24-5L499.39-1.2Q496.94 0.75 493.64 0.75L493.64 0.75Q490.19 0.75 488.39-1.23 486.59-3.2 486.59-6.6L486.59-6.6 486.59-22 483.49-22 483.49-26.45 486.59-26.45 486.59-32.3 492.74-33.05 492.74-26.45 497.74-26.45 497.14-22 492.74-22 492.74-6.6Q492.74-4.2 494.79-4.2L494.79-4.2Q495.44-4.2 495.94-4.38 496.44-4.55 497.24-5L497.24-5ZM519.14-27.15Q523.84-27.15 527.09-24.05L527.09-24.05 524.74-20.7Q523.34-21.7 522.09-22.2 520.84-22.7 519.54-22.7L519.54-22.7Q518.09-22.7 517.26-21.93 516.44-21.15 516.44-19.8L516.44-19.8Q516.44-18.45 517.37-17.63 518.29-16.8 521.09-15.7L521.09-15.7Q524.54-14.35 526.19-12.5 527.84-10.65 527.84-7.55L527.84-7.55Q527.84-3.7 525.14-1.48 522.44 0.75 518.29 0.75L518.29 0.75Q515.59 0.75 513.32-0.23 511.04-1.2 509.34-2.95L509.34-2.95 512.34-6.25Q515.14-3.8 518.04-3.8L518.04-3.8Q519.69-3.8 520.64-4.67 521.59-5.55 521.59-7.1L521.59-7.1Q521.59-8.25 521.19-8.97 520.79-9.7 519.79-10.33 518.79-10.95 516.79-11.7L516.79-11.7Q513.34-13.05 511.87-14.85 510.39-16.65 510.39-19.45L510.39-19.45Q510.39-22.8 512.76-24.98 515.14-27.15 519.14-27.15L519.14-27.15ZM550.34-26.45L543.34 0.1Q542.04 4.9 539.14 7.65 536.24 10.4 531.39 10.85L531.39 10.85 530.69 6.5Q533.84 5.85 535.41 4.42 536.99 3 537.89 0L537.89 0 535.59 0 528.89-26.45 535.14-26.45 539.54-4.1 544.24-26.45 550.34-26.45ZM560.58-27.15Q565.28-27.15 568.53-24.05L568.53-24.05 566.18-20.7Q564.78-21.7 563.53-22.2 562.28-22.7 560.98-22.7L560.98-22.7Q559.53-22.7 558.71-21.93 557.88-21.15 557.88-19.8L557.88-19.8Q557.88-18.45 558.81-17.63 559.73-16.8 562.53-15.7L562.53-15.7Q565.98-14.35 567.63-12.5 569.28-10.65 569.28-7.55L569.28-7.55Q569.28-3.7 566.58-1.48 563.88 0.75 559.73 0.75L559.73 0.75Q557.03 0.75 554.76-0.23 552.48-1.2 550.78-2.95L550.78-2.95 553.78-6.25Q556.58-3.8 559.48-3.8L559.48-3.8Q561.13-3.8 562.08-4.67 563.03-5.55 563.03-7.1L563.03-7.1Q563.03-8.25 562.63-8.97 562.23-9.7 561.23-10.33 560.23-10.95 558.23-11.7L558.23-11.7Q554.78-13.05 553.31-14.85 551.83-16.65 551.83-19.45L551.83-19.45Q551.83-22.8 554.21-24.98 556.58-27.15 560.58-27.15L560.58-27.15ZM584.28-5L586.43-1.2Q583.98 0.75 580.68 0.75L580.68 0.75Q577.23 0.75 575.43-1.23 573.63-3.2 573.63-6.6L573.63-6.6 573.63-22 570.53-22 570.53-26.45 573.63-26.45 573.63-32.3 579.78-33.05 579.78-26.45 584.78-26.45 584.18-22 579.78-22 579.78-6.6Q579.78-4.2 581.83-4.2L581.83-4.2Q582.48-4.2 582.98-4.38 583.48-4.55 584.28-5L584.28-5ZM607.83-13.85Q607.83-13.4 607.68-11.3L607.68-11.3 594.03-11.3Q594.23-7.2 595.45-5.58 596.68-3.95 598.93-3.95L598.93-3.95Q600.48-3.95 601.73-4.48 602.98-5 604.43-6.15L604.43-6.15 606.98-2.65Q603.48 0.75 598.58 0.75L598.58 0.75Q593.38 0.75 590.6-2.85 587.83-6.45 587.83-13L587.83-13Q587.83-19.55 590.48-23.35 593.13-27.15 597.98-27.15L597.98-27.15Q602.63-27.15 605.23-23.78 607.83-20.4 607.83-13.85L607.83-13.85ZM601.83-15.3L601.83-15.65Q601.83-19.4 600.93-21.13 600.03-22.85 598.03-22.85L598.03-22.85Q596.18-22.85 595.2-21.18 594.23-19.5 594.03-15.3L594.03-15.3 601.83-15.3ZM635.78-27.15Q638.43-27.15 640.03-25.1 641.63-23.05 641.63-19.6L641.63-19.6 641.63 0 635.58 0 635.58-18.95Q635.58-20.85 635.08-21.68 634.58-22.5 633.63-22.5L633.63-22.5Q631.68-22.5 629.88-18.8L629.88-18.8 629.88 0 623.88 0 623.88-18.95Q623.88-22.5 621.98-22.5L621.98-22.5Q619.93-22.5 618.18-18.8L618.18-18.8 618.18 0 612.13 0 612.13-26.45 617.48-26.45 617.88-23.05Q620.48-27.15 624.13-27.15L624.13-27.15Q625.98-27.15 627.33-26 628.68-24.85 629.38-22.75L629.38-22.75Q632.03-27.15 635.78-27.15L635.78-27.15Z" opacity="1" transform="matrix(1,0,0,1,0,0)" fill="#000000" class="wordmark-text-0" data-fill-palette-color="primary" id="text-0"></path></svg></g></svg></g><g transform="matrix(1,0,0,1,11.200000000000017,18.953807817869954)"><svg viewBox="0 0 212.79999999999998 12.48663282571912" height="12.48663282571912" width="212.79999999999998"><g transform="matrix(1,0,0,1,0,0)"><svg width="212.79999999999998" viewBox="0.4 -37.7 827.2900000000001 48.550000000000004" height="12.48663282571912" data-palette-color="#89939e"><path d="M10.2-27.15Q14.9-27.15 18.15-24.05L18.15-24.05 15.8-20.7Q14.4-21.7 13.15-22.2 11.9-22.7 10.6-22.7L10.6-22.7Q9.15-22.7 8.33-21.93 7.5-21.15 7.5-19.8L7.5-19.8Q7.5-18.45 8.43-17.63 9.35-16.8 12.15-15.7L12.15-15.7Q15.6-14.35 17.25-12.5 18.9-10.65 18.9-7.55L18.9-7.55Q18.9-3.7 16.2-1.48 13.5 0.75 9.35 0.75L9.35 0.75Q6.65 0.75 4.38-0.23 2.1-1.2 0.4-2.95L0.4-2.95 3.4-6.25Q6.2-3.8 9.1-3.8L9.1-3.8Q10.75-3.8 11.7-4.67 12.65-5.55 12.65-7.1L12.65-7.1Q12.65-8.25 12.25-8.97 11.85-9.7 10.85-10.33 9.85-10.95 7.85-11.7L7.85-11.7Q4.4-13.05 2.93-14.85 1.45-16.65 1.45-19.45L1.45-19.45Q1.45-22.8 3.83-24.98 6.2-27.15 10.2-27.15L10.2-27.15ZM46.4-27.15Q49.05-27.15 50.65-25.1 52.25-23.05 52.25-19.6L52.25-19.6 52.25 0 46.2 0 46.2-18.95Q46.2-20.85 45.7-21.68 45.2-22.5 44.25-22.5L44.25-22.5Q42.3-22.5 40.5-18.8L40.5-18.8 40.5 0 34.5 0 34.5-18.95Q34.5-22.5 32.6-22.5L32.6-22.5Q30.55-22.5 28.8-18.8L28.8-18.8 28.8 0 22.75 0 22.75-26.45 28.1-26.45 28.5-23.05Q31.1-27.15 34.75-27.15L34.75-27.15Q36.6-27.15 37.95-26 39.3-24.85 40-22.75L40-22.75Q42.65-27.15 46.4-27.15L46.4-27.15ZM74.65-6.4Q74.65-5.1 75-4.48 75.34-3.85 76.15-3.45L76.15-3.45 74.9 0.65Q72.84 0.4 71.62-0.45 70.4-1.3 69.8-3.05L69.8-3.05Q67.5 0.75 63.35 0.75L63.35 0.75Q60.05 0.75 58.1-1.48 56.15-3.7 56.15-7.4L56.15-7.4Q56.15-11.7 58.82-13.95 61.5-16.2 66.59-16.2L66.59-16.2 68.65-16.2 68.65-18.05Q68.65-20.55 67.77-21.58 66.9-22.6 64.95-22.6L64.95-22.6Q62.6-22.6 59.1-21.3L59.1-21.3 57.7-25.3Q59.7-26.2 61.85-26.68 64-27.15 65.95-27.15L65.95-27.15Q74.65-27.15 74.65-18.35L74.65-18.35 74.65-6.4ZM65-3.7Q67.4-3.7 68.65-7L68.65-7 68.65-12.55 67.2-12.55Q64.65-12.55 63.47-11.4 62.3-10.25 62.3-7.85L62.3-7.85Q62.3-5.8 63-4.75 63.7-3.7 65-3.7L65-3.7ZM92.09-27.1Q93.24-27.1 94.14-26.75L94.14-26.75 93.14-20.85Q92.14-21.1 91.29-21.1L91.29-21.1Q89.39-21.1 88.29-19.45 87.19-17.8 86.59-14.55L86.59-14.55 86.59 0 80.44 0 80.44-26.45 85.79-26.45 86.24-21.85Q88.09-27.1 92.09-27.1L92.09-27.1ZM108.14-5L110.29-1.2Q107.84 0.75 104.54 0.75L104.54 0.75Q101.09 0.75 99.29-1.23 97.49-3.2 97.49-6.6L97.49-6.6 97.49-22 94.39-22 94.39-26.45 97.49-26.45 97.49-32.3 103.64-33.05 103.64-26.45 108.64-26.45 108.04-22 103.64-22 103.64-6.6Q103.64-4.2 105.69-4.2L105.69-4.2Q106.34-4.2 106.84-4.38 107.34-4.55 108.14-5L108.14-5ZM132.19-27.15Q134.34-27.15 136.09-26.43 137.84-25.7 139.44-24.15L139.44-24.15 136.78-20.65Q135.69-21.55 134.71-21.98 133.74-22.4 132.59-22.4L132.59-22.4Q130.34-22.4 129.19-20.28 128.03-18.15 128.03-13.1L128.03-13.1Q128.03-8.2 129.21-6.2 130.39-4.2 132.59-4.2L132.59-4.2Q133.69-4.2 134.59-4.6 135.49-5 136.69-5.85L136.69-5.85 139.44-2.3Q136.24 0.75 132.28 0.75L132.28 0.75Q127.19 0.75 124.36-2.73 121.54-6.2 121.54-13L121.54-13Q121.54-17.4 122.84-20.6 124.14-23.8 126.56-25.48 128.99-27.15 132.19-27.15L132.19-27.15ZM159.38-6.4Q159.38-5.1 159.73-4.48 160.08-3.85 160.88-3.45L160.88-3.45 159.63 0.65Q157.58 0.4 156.36-0.45 155.13-1.3 154.53-3.05L154.53-3.05Q152.23 0.75 148.08 0.75L148.08 0.75Q144.78 0.75 142.83-1.48 140.88-3.7 140.88-7.4L140.88-7.4Q140.88-11.7 143.56-13.95 146.23-16.2 151.33-16.2L151.33-16.2 153.38-16.2 153.38-18.05Q153.38-20.55 152.51-21.58 151.63-22.6 149.68-22.6L149.68-22.6Q147.33-22.6 143.83-21.3L143.83-21.3 142.43-25.3Q144.43-26.2 146.58-26.68 148.73-27.15 150.68-27.15L150.68-27.15Q159.38-27.15 159.38-18.35L159.38-18.35 159.38-6.4ZM149.73-3.7Q152.13-3.7 153.38-7L153.38-7 153.38-12.55 151.93-12.55Q149.38-12.55 148.21-11.4 147.03-10.25 147.03-7.85L147.03-7.85Q147.03-5.8 147.73-4.75 148.43-3.7 149.73-3.7L149.73-3.7ZM188.83-27.15Q191.48-27.15 193.08-25.1 194.68-23.05 194.68-19.6L194.68-19.6 194.68 0 188.63 0 188.63-18.95Q188.63-20.85 188.13-21.68 187.63-22.5 186.68-22.5L186.68-22.5Q184.73-22.5 182.93-18.8L182.93-18.8 182.93 0 176.93 0 176.93-18.95Q176.93-22.5 175.03-22.5L175.03-22.5Q172.98-22.5 171.23-18.8L171.23-18.8 171.23 0 165.18 0 165.18-26.45 170.53-26.45 170.93-23.05Q173.53-27.15 177.18-27.15L177.18-27.15Q179.03-27.15 180.38-26 181.73-24.85 182.43-22.75L182.43-22.75Q185.08-27.15 188.83-27.15L188.83-27.15ZM212.38-27.15Q216.28-27.15 218.28-23.58 220.28-20 220.28-13.3L220.28-13.3Q220.28-6.8 218-3.03 215.73 0.75 211.68 0.75L211.68 0.75Q208.48 0.75 206.33-2.1L206.33-2.1 206.33 10.15 200.18 10.85 200.18-26.45 205.63-26.45 205.88-23.25Q207.18-25.25 208.78-26.2 210.38-27.15 212.38-27.15L212.38-27.15ZM210.03-3.95Q211.93-3.95 212.93-6.13 213.93-8.3 213.93-13.25L213.93-13.25Q213.93-18.45 213.08-20.5 212.23-22.55 210.43-22.55L210.43-22.55Q208.13-22.55 206.33-19.25L206.33-19.25 206.33-6.45Q207.93-3.95 210.03-3.95L210.03-3.95ZM243.03-26.45L243.03 0 237.68 0 237.38-3.35Q236.13-1.3 234.58-0.28 233.03 0.75 230.98 0.75L230.98 0.75Q228.08 0.75 226.4-1.3 224.73-3.35 224.73-6.65L224.73-6.65 224.73-26.45 230.88-26.45 230.88-7Q230.88-3.9 232.98-3.9L232.98-3.9Q234.18-3.9 235.13-4.83 236.08-5.75 236.88-7.45L236.88-7.45 236.88-26.45 243.03-26.45ZM256.07-27.15Q260.77-27.15 264.02-24.05L264.02-24.05 261.67-20.7Q260.27-21.7 259.02-22.2 257.77-22.7 256.47-22.7L256.47-22.7Q255.02-22.7 254.2-21.93 253.37-21.15 253.37-19.8L253.37-19.8Q253.37-18.45 254.3-17.63 255.22-16.8 258.02-15.7L258.02-15.7Q261.47-14.35 263.12-12.5 264.77-10.65 264.77-7.55L264.77-7.55Q264.77-3.7 262.07-1.48 259.37 0.75 255.22 0.75L255.22 0.75Q252.52 0.75 250.25-0.23 247.97-1.2 246.27-2.95L246.27-2.95 249.27-6.25Q252.07-3.8 254.97-3.8L254.97-3.8Q256.62-3.8 257.57-4.67 258.52-5.55 258.52-7.1L258.52-7.1Q258.52-8.25 258.12-8.97 257.72-9.7 256.72-10.33 255.72-10.95 253.72-11.7L253.72-11.7Q250.27-13.05 248.8-14.85 247.32-16.65 247.32-19.45L247.32-19.45Q247.32-22.8 249.7-24.98 252.07-27.15 256.07-27.15L256.07-27.15ZM288.17-33.05Q286.77-33.05 286.09-32.3 285.42-31.55 285.42-30L285.42-30 285.42-26.45 290.47-26.45 289.77-22 285.42-22 285.42 0 279.27 0 279.27-22 275.97-22 275.97-26.45 279.27-26.45 279.27-29.8Q279.27-33.4 281.37-35.55 283.47-37.7 287.37-37.7L287.37-37.7Q290.42-37.7 293.27-36.2L293.27-36.2 291.57-32.2Q289.82-33.05 288.17-33.05L288.17-33.05ZM302.67-27.15Q307.67-27.15 310.44-23.65 313.22-20.15 313.22-13.25L313.22-13.25Q313.22-6.65 310.42-2.95 307.62 0.75 302.67 0.75L302.67 0.75Q297.72 0.75 294.92-2.88 292.12-6.5 292.12-13.25L292.12-13.25Q292.12-19.95 294.92-23.55 297.72-27.15 302.67-27.15L302.67-27.15ZM302.67-22.5Q300.52-22.5 299.52-20.38 298.52-18.25 298.52-13.25L298.52-13.25Q298.52-8.2 299.52-6.08 300.52-3.95 302.67-3.95L302.67-3.95Q304.82-3.95 305.82-6.08 306.82-8.2 306.82-13.25L306.82-13.25Q306.82-18.3 305.82-20.4 304.82-22.5 302.67-22.5L302.67-22.5ZM329.41-27.1Q330.56-27.1 331.46-26.75L331.46-26.75 330.46-20.85Q329.46-21.1 328.61-21.1L328.61-21.1Q326.71-21.1 325.61-19.45 324.51-17.8 323.91-14.55L323.91-14.55 323.91 0 317.76 0 317.76-26.45 323.11-26.45 323.56-21.85Q325.41-27.1 329.41-27.1L329.41-27.1ZM356.31-27.15Q360.16-27.15 362.21-23.65 364.26-20.15 364.26-13.25L364.26-13.25Q364.26-6.75 361.96-3 359.66 0.75 355.66 0.75L355.66 0.75Q353.91 0.75 352.46-0.13 351.01-1 349.96-2.55L349.96-2.55 349.61 0 344.16 0 344.16-37 350.31-37.65 350.31-23.6Q351.36-25.3 352.88-26.23 354.41-27.15 356.31-27.15L356.31-27.15ZM354.01-3.9Q355.86-3.9 356.88-6 357.91-8.1 357.91-13.25L357.91-13.25Q357.91-18.6 356.98-20.58 356.06-22.55 354.36-22.55L354.36-22.55Q353.21-22.55 352.16-21.6 351.11-20.65 350.31-19.1L350.31-19.1 350.31-6.7Q350.96-5.45 351.93-4.67 352.91-3.9 354.01-3.9L354.01-3.9ZM387.71-13.85Q387.71-13.4 387.56-11.3L387.56-11.3 373.91-11.3Q374.11-7.2 375.33-5.58 376.56-3.95 378.81-3.95L378.81-3.95Q380.36-3.95 381.61-4.48 382.86-5 384.31-6.15L384.31-6.15 386.86-2.65Q383.36 0.75 378.46 0.75L378.46 0.75Q373.26 0.75 370.48-2.85 367.71-6.45 367.71-13L367.71-13Q367.71-19.55 370.36-23.35 373.01-27.15 377.86-27.15L377.86-27.15Q382.51-27.15 385.11-23.78 387.71-20.4 387.71-13.85L387.71-13.85ZM381.71-15.3L381.71-15.65Q381.71-19.4 380.81-21.13 379.91-22.85 377.91-22.85L377.91-22.85Q376.06-22.85 375.08-21.18 374.11-19.5 373.91-15.3L373.91-15.3 381.71-15.3ZM403.15-5L405.3-1.2Q402.85 0.75 399.55 0.75L399.55 0.75Q396.1 0.75 394.3-1.23 392.5-3.2 392.5-6.6L392.5-6.6 392.5-22 389.4-22 389.4-26.45 392.5-26.45 392.5-32.3 398.65-33.05 398.65-26.45 403.65-26.45 403.05-22 398.65-22 398.65-6.6Q398.65-4.2 400.7-4.2L400.7-4.2Q401.35-4.2 401.85-4.38 402.35-4.55 403.15-5L403.15-5ZM419-5L421.15-1.2Q418.7 0.75 415.4 0.75L415.4 0.75Q411.95 0.75 410.15-1.23 408.35-3.2 408.35-6.6L408.35-6.6 408.35-22 405.25-22 405.25-26.45 408.35-26.45 408.35-32.3 414.5-33.05 414.5-26.45 419.5-26.45 418.9-22 414.5-22 414.5-6.6Q414.5-4.2 416.55-4.2L416.55-4.2Q417.2-4.2 417.7-4.38 418.2-4.55 419-5L419-5ZM442.55-13.85Q442.55-13.4 442.4-11.3L442.4-11.3 428.75-11.3Q428.95-7.2 430.17-5.58 431.4-3.95 433.65-3.95L433.65-3.95Q435.2-3.95 436.45-4.48 437.7-5 439.15-6.15L439.15-6.15 441.7-2.65Q438.2 0.75 433.3 0.75L433.3 0.75Q428.1 0.75 425.32-2.85 422.55-6.45 422.55-13L422.55-13Q422.55-19.55 425.2-23.35 427.85-27.15 432.7-27.15L432.7-27.15Q437.35-27.15 439.95-23.78 442.55-20.4 442.55-13.85L442.55-13.85ZM436.55-15.3L436.55-15.65Q436.55-19.4 435.65-21.13 434.75-22.85 432.75-22.85L432.75-22.85Q430.9-22.85 429.92-21.18 428.95-19.5 428.75-15.3L428.75-15.3 436.55-15.3ZM458.5-27.1Q459.65-27.1 460.55-26.75L460.55-26.75 459.55-20.85Q458.55-21.1 457.7-21.1L457.7-21.1Q455.8-21.1 454.7-19.45 453.6-17.8 453-14.55L453-14.55 453 0 446.85 0 446.85-26.45 452.2-26.45 452.65-21.85Q454.5-27.1 458.5-27.1L458.5-27.1ZM482.94-33.05Q481.54-33.05 480.87-32.3 480.19-31.55 480.19-30L480.19-30 480.19-26.45 485.24-26.45 484.54-22 480.19-22 480.19 0 474.04 0 474.04-22 470.74-22 470.74-26.45 474.04-26.45 474.04-29.8Q474.04-33.4 476.14-35.55 478.24-37.7 482.14-37.7L482.14-37.7Q485.19-37.7 488.04-36.2L488.04-36.2 486.34-32.2Q484.59-33.05 482.94-33.05L482.94-33.05ZM506.19-26.45L506.19 0 500.84 0 500.54-3.35Q499.29-1.3 497.74-0.28 496.19 0.75 494.14 0.75L494.14 0.75Q491.24 0.75 489.56-1.3 487.89-3.35 487.89-6.65L487.89-6.65 487.89-26.45 494.04-26.45 494.04-7Q494.04-3.9 496.14-3.9L496.14-3.9Q497.34-3.9 498.29-4.83 499.24-5.75 500.04-7.45L500.04-7.45 500.04-26.45 506.19-26.45ZM523.04-5L525.19-1.2Q522.74 0.75 519.44 0.75L519.44 0.75Q515.99 0.75 514.19-1.23 512.39-3.2 512.39-6.6L512.39-6.6 512.39-22 509.29-22 509.29-26.45 512.39-26.45 512.39-32.3 518.54-33.05 518.54-26.45 523.54-26.45 522.94-22 518.54-22 518.54-6.6Q518.54-4.2 520.59-4.2L520.59-4.2Q521.24-4.2 521.74-4.38 522.24-4.55 523.04-5L523.04-5ZM545.88-26.45L545.88 0 540.53 0 540.23-3.35Q538.98-1.3 537.43-0.28 535.88 0.75 533.83 0.75L533.83 0.75Q530.93 0.75 529.26-1.3 527.58-3.35 527.58-6.65L527.58-6.65 527.58-26.45 533.73-26.45 533.73-7Q533.73-3.9 535.83-3.9L535.83-3.9Q537.03-3.9 537.98-4.83 538.93-5.75 539.73-7.45L539.73-7.45 539.73-26.45 545.88-26.45ZM570.43-13.85Q570.43-13.4 570.28-11.3L570.28-11.3 556.63-11.3Q556.83-7.2 558.06-5.58 559.28-3.95 561.53-3.95L561.53-3.95Q563.08-3.95 564.33-4.48 565.58-5 567.03-6.15L567.03-6.15 569.58-2.65Q566.08 0.75 561.18 0.75L561.18 0.75Q555.98 0.75 553.21-2.85 550.43-6.45 550.43-13L550.43-13Q550.43-19.55 553.08-23.35 555.73-27.15 560.58-27.15L560.58-27.15Q565.23-27.15 567.83-23.78 570.43-20.4 570.43-13.85L570.43-13.85ZM564.43-15.3L564.43-15.65Q564.43-19.4 563.53-21.13 562.63-22.85 560.63-22.85L560.63-22.85Q558.78-22.85 557.81-21.18 556.83-19.5 556.63-15.3L556.63-15.3 564.43-15.3ZM586.38-27.1Q587.53-27.1 588.43-26.75L588.43-26.75 587.43-20.85Q586.43-21.1 585.58-21.1L585.58-21.1Q583.68-21.1 582.58-19.45 581.48-17.8 580.88-14.55L580.88-14.55 580.88 0 574.73 0 574.73-26.45 580.08-26.45 580.53-21.85Q582.38-27.1 586.38-27.1L586.38-27.1ZM618.02-6.4Q618.02-5.1 618.37-4.48 618.72-3.85 619.52-3.45L619.52-3.45 618.27 0.65Q616.22 0.4 615-0.45 613.77-1.3 613.17-3.05L613.17-3.05Q610.87 0.75 606.72 0.75L606.72 0.75Q603.42 0.75 601.47-1.48 599.52-3.7 599.52-7.4L599.52-7.4Q599.52-11.7 602.2-13.95 604.87-16.2 609.97-16.2L609.97-16.2 612.02-16.2 612.02-18.05Q612.02-20.55 611.15-21.58 610.27-22.6 608.32-22.6L608.32-22.6Q605.97-22.6 602.47-21.3L602.47-21.3 601.07-25.3Q603.07-26.2 605.22-26.68 607.37-27.15 609.32-27.15L609.32-27.15Q618.02-27.15 618.02-18.35L618.02-18.35 618.02-6.4ZM608.37-3.7Q610.77-3.7 612.02-7L612.02-7 612.02-12.55 610.57-12.55Q608.02-12.55 606.85-11.4 605.67-10.25 605.67-7.85L605.67-7.85Q605.67-5.8 606.37-4.75 607.07-3.7 608.37-3.7L608.37-3.7ZM636.17-27.15Q639.02-27.15 640.67-25.1 642.32-23.05 642.32-19.6L642.32-19.6 642.32 0 636.17 0 636.17-18.9Q636.17-20.8 635.64-21.63 635.12-22.45 634.12-22.45L634.12-22.45Q632.02-22.45 629.97-18.5L629.97-18.5 629.97 0 623.82 0 623.82-37 629.97-37.65 629.97-23.3Q631.22-25.25 632.69-26.2 634.17-27.15 636.17-27.15L636.17-27.15ZM666.72-13.85Q666.72-13.4 666.57-11.3L666.57-11.3 652.92-11.3Q653.12-7.2 654.34-5.58 655.57-3.95 657.82-3.95L657.82-3.95Q659.37-3.95 660.62-4.48 661.87-5 663.32-6.15L663.32-6.15 665.87-2.65Q662.37 0.75 657.47 0.75L657.47 0.75Q652.27 0.75 649.49-2.85 646.72-6.45 646.72-13L646.72-13Q646.72-19.55 649.37-23.35 652.02-27.15 656.87-27.15L656.87-27.15Q661.52-27.15 664.12-23.78 666.72-20.4 666.72-13.85L666.72-13.85ZM660.72-15.3L660.72-15.65Q660.72-19.4 659.82-21.13 658.92-22.85 656.92-22.85L656.92-22.85Q655.07-22.85 654.09-21.18 653.12-19.5 652.92-15.3L652.92-15.3 660.72-15.3ZM687.91-6.4Q687.91-5.1 688.26-4.48 688.61-3.85 689.41-3.45L689.41-3.45 688.16 0.65Q686.11 0.4 684.89-0.45 683.66-1.3 683.06-3.05L683.06-3.05Q680.76 0.75 676.61 0.75L676.61 0.75Q673.31 0.75 671.36-1.48 669.41-3.7 669.41-7.4L669.41-7.4Q669.41-11.7 672.09-13.95 674.76-16.2 679.86-16.2L679.86-16.2 681.91-16.2 681.91-18.05Q681.91-20.55 681.04-21.58 680.16-22.6 678.21-22.6L678.21-22.6Q675.86-22.6 672.36-21.3L672.36-21.3 670.96-25.3Q672.96-26.2 675.11-26.68 677.26-27.15 679.21-27.15L679.21-27.15Q687.91-27.15 687.91-18.35L687.91-18.35 687.91-6.4ZM678.26-3.7Q680.66-3.7 681.91-7L681.91-7 681.91-12.55 680.46-12.55Q677.91-12.55 676.74-11.4 675.56-10.25 675.56-7.85L675.56-7.85Q675.56-5.8 676.26-4.75 676.96-3.7 678.26-3.7L678.26-3.7ZM706.66-37.7L712.81-37.05 712.81 0 707.36 0 707.06-3.05Q704.71 0.75 701.01 0.75L701.01 0.75Q696.91 0.75 694.74-2.93 692.56-6.6 692.56-13.2L692.56-13.2Q692.56-17.4 693.69-20.58 694.81-23.75 696.81-25.45 698.81-27.15 701.41-27.15L701.41-27.15Q704.61-27.15 706.66-24.5L706.66-24.5 706.66-37.7ZM702.76-3.9Q703.91-3.9 704.84-4.7 705.76-5.5 706.66-7L706.66-7 706.66-19.85Q705.06-22.55 703.01-22.55L703.01-22.55Q698.96-22.55 698.96-13.25L698.96-13.25Q698.96-8.2 699.96-6.05 700.96-3.9 702.76-3.9L702.76-3.9ZM737.76-27.15Q742.76-27.15 745.53-23.65 748.31-20.15 748.31-13.25L748.31-13.25Q748.31-6.65 745.51-2.95 742.71 0.75 737.76 0.75L737.76 0.75Q732.81 0.75 730.01-2.88 727.21-6.5 727.21-13.25L727.21-13.25Q727.21-19.95 730.01-23.55 732.81-27.15 737.76-27.15L737.76-27.15ZM737.76-22.5Q735.61-22.5 734.61-20.38 733.61-18.25 733.61-13.25L733.61-13.25Q733.61-8.2 734.61-6.08 735.61-3.95 737.76-3.95L737.76-3.95Q739.91-3.95 740.91-6.08 741.91-8.2 741.91-13.25L741.91-13.25Q741.91-18.3 740.91-20.4 739.91-22.5 737.76-22.5L737.76-22.5ZM762.55-33.05Q761.15-33.05 760.48-32.3 759.8-31.55 759.8-30L759.8-30 759.8-26.45 764.85-26.45 764.15-22 759.8-22 759.8 0 753.65 0 753.65-22 750.35-22 750.35-26.45 753.65-26.45 753.65-29.8Q753.65-33.4 755.75-35.55 757.85-37.7 761.75-37.7L761.75-37.7Q764.8-37.7 767.65-36.2L767.65-36.2 765.95-32.2Q764.2-33.05 762.55-33.05L762.55-33.05ZM795.65-26.45L795.65 0 790.3 0 790-3.35Q788.75-1.3 787.2-0.28 785.65 0.75 783.6 0.75L783.6 0.75Q780.7 0.75 779.02-1.3 777.35-3.35 777.35-6.65L777.35-6.65 777.35-26.45 783.5-26.45 783.5-7Q783.5-3.9 785.6-3.9L785.6-3.9Q786.8-3.9 787.75-4.83 788.7-5.75 789.5-7.45L789.5-7.45 789.5-26.45 795.65-26.45ZM808.7-27.15Q813.4-27.15 816.65-24.05L816.65-24.05 814.3-20.7Q812.9-21.7 811.65-22.2 810.4-22.7 809.1-22.7L809.1-22.7Q807.65-22.7 806.82-21.93 806-21.15 806-19.8L806-19.8Q806-18.45 806.92-17.63 807.85-16.8 810.65-15.7L810.65-15.7Q814.1-14.35 815.75-12.5 817.4-10.65 817.4-7.55L817.4-7.55Q817.4-3.7 814.7-1.48 812 0.75 807.85 0.75L807.85 0.75Q805.15 0.75 802.87-0.23 800.6-1.2 798.9-2.95L798.9-2.95 801.9-6.25Q804.7-3.8 807.6-3.8L807.6-3.8Q809.25-3.8 810.2-4.67 811.15-5.55 811.15-7.1L811.15-7.1Q811.15-8.25 810.75-8.97 810.35-9.7 809.35-10.33 808.35-10.95 806.35-11.7L806.35-11.7Q802.9-13.05 801.42-14.85 799.95-16.65 799.95-19.45L799.95-19.45Q799.95-22.8 802.32-24.98 804.7-27.15 808.7-27.15L808.7-27.15ZM820.59-34.55L827.14-34.55 826.29-12.1 821.44-12.1 820.59-34.55ZM823.89-7.05Q825.54-7.05 826.62-5.9 827.69-4.75 827.69-3.15L827.69-3.15Q827.69-1.55 826.62-0.4 825.54 0.75 823.89 0.75L823.89 0.75Q822.24 0.75 821.17-0.4 820.09-1.55 820.09-3.15L820.09-3.15Q820.09-4.75 821.17-5.9 822.24-7.05 823.89-7.05L823.89-7.05Z" opacity="1" transform="matrix(1,0,0,1,0,0)" fill="#89939e" class="slogan-text-1" data-fill-palette-color="secondary" id="text-1"></path></svg></g></svg></g></svg></g></svg></g></svg></g></svg></g></svg></g><defs></defs></svg><rect width="448" height="360" fill="none" stroke="none" visibility="hidden"></rect></g></svg></g></svg>